<svg width="32" height="32" viewBox="0 0 32 32" fill="none" xmlns="http://www.w3.org/2000/svg">
<rect x="0.5" y="0.5" width="31" height="31" rx="4.5" stroke="#F3AEFF"/>
<path d="M22.848 16C23.722 15.896 24.47 15.728 24.928 15.464C25.8392 14.9298 26.5022 14.0569 26.7722 13.0357C27.0421 12.0145 26.8972 10.928 26.3691 10.0132C25.841 9.09847 24.9724 8.42976 23.9531 8.153C22.9337 7.87625 21.8462 8.01393 20.928 8.536C20.47 8.8 19.95 9.364 19.424 10.07C19.772 9.26 20 8.528 20 8C20 6.93913 19.5786 5.92172 18.8284 5.17157C18.0783 4.42143 17.0609 4 16 4C14.9391 4 13.9217 4.42143 13.1716 5.17157C12.4214 5.92172 12 6.93913 12 8C12 8.528 12.228 9.26 12.576 10.07C12.05 9.364 11.53 8.8 11.072 8.536C10.1538 8.01393 9.06632 7.87625 8.04695 8.153C7.02758 8.42976 6.15905 9.09847 5.63091 10.0132C5.10276 10.928 4.95787 12.0145 5.22785 13.0357C5.49784 14.0569 6.16078 14.9298 7.072 15.464C7.53 15.728 8.27801 15.896 9.15201 16C8.27801 16.104 7.53 16.272 7.072 16.536C6.61342 16.7967 6.21094 17.1456 5.88774 17.5625C5.56453 17.9794 5.32698 18.4561 5.18876 18.9652C5.05055 19.4743 5.0144 20.0057 5.08239 20.5288C5.15039 21.052 5.32118 21.5565 5.58495 22.0133C5.84872 22.4702 6.20024 22.8703 6.61929 23.1907C7.03833 23.5112 7.51662 23.7456 8.02662 23.8804C8.53662 24.0152 9.06825 24.0479 9.59091 23.9764C10.1136 23.9049 10.6169 23.7308 11.072 23.464C11.53 23.2 12.05 22.636 12.576 21.93C12.228 22.74 12 23.472 12 24C12 25.0609 12.4214 26.0783 13.1716 26.8284C13.9217 27.5786 14.9391 28 16 28C17.0609 28 18.0783 27.5786 18.8284 26.8284C19.5786 26.0783 20 25.0609 20 24C20 23.472 19.772 22.74 19.424 21.93C19.95 22.636 20.47 23.2 20.928 23.464C21.3831 23.7308 21.8864 23.9049 22.4091 23.9764C22.9318 24.0479 23.4634 24.0152 23.9734 23.8804C24.4834 23.7456 24.9617 23.5112 25.3807 23.1907C25.7998 22.8703 26.1513 22.4702 26.4151 22.0133C26.6788 21.5565 26.8496 21.052 26.9176 20.5288C26.9856 20.0057 26.9495 19.4743 26.8112 18.9652C26.673 18.4561 26.4355 17.9794 26.1123 17.5625C25.7891 17.1456 25.3866 16.7967 24.928 16.536C24.47 16.272 23.722 16.104 22.848 16ZM18 8C17.9772 8.13815 17.9472 8.275 17.91 8.41C17.8313 8.67667 17.7093 8.99933 17.544 9.378C17.1629 10.2153 16.7376 11.0318 16.27 11.824L16 12.284L15.73 11.824C15.2624 11.0318 14.8371 10.2153 14.456 9.378C14.3132 9.06357 14.191 8.74023 14.09 8.41C14.0528 8.275 14.0228 8.13815 14 8C14 7.46957 14.2107 6.96086 14.5858 6.58579C14.9609 6.21071 15.4696 6 16 6C16.5304 6 17.0391 6.21071 17.4142 6.58579C17.7893 6.96086 18 7.46957 18 8ZM7.34 11C7.60523 10.5407 8.04206 10.2055 8.55441 10.0682C9.06675 9.93093 9.61265 10.0028 10.072 10.268C10.1809 10.3571 10.2851 10.4519 10.384 10.552C10.5733 10.752 10.7907 11.0187 11.036 11.352C11.526 12.018 12.04 12.846 12.52 13.678L12.78 14.142L12.25 14.146C11.3292 14.1549 10.4086 14.1148 9.492 14.026C9.14878 13.9927 8.80807 13.9373 8.472 13.86C8.33652 13.8244 8.203 13.7816 8.072 13.732C7.61266 13.4668 7.27748 13.0299 7.14021 12.5176C7.00293 12.0053 7.0748 11.4594 7.34 11ZM10.072 21.732C9.61289 21.993 9.06916 22.0619 8.55948 21.9235C8.04979 21.7851 7.61553 21.4508 7.35146 20.9934C7.08738 20.536 7.01494 19.9928 7.14993 19.4822C7.28492 18.9716 7.61639 18.5351 8.072 18.268L8.166 18.228C8.23934 18.2013 8.34134 18.172 8.472 18.14C8.74134 18.076 9.08134 18.0207 9.492 17.974C10.4086 17.8852 11.3292 17.8451 12.25 17.854C12.43 17.854 12.6073 17.8553 12.782 17.858L12.52 18.322C12.04 19.154 11.526 19.982 11.036 20.648C10.8355 20.9285 10.617 21.1957 10.382 21.448C10.2837 21.548 10.1802 21.6428 10.072 21.732ZM18 24C18 24.5304 17.7893 25.0391 17.4142 25.4142C17.0391 25.7893 16.5304 26 16 26C15.4696 26 14.9609 25.7893 14.5858 25.4142C14.2107 25.0391 14 24.5304 14 24C14.0227 23.8612 14.0528 23.7237 14.09 23.588C14.1673 23.324 14.2893 23.002 14.456 22.622C14.788 21.866 15.248 21.006 15.73 20.176L16 19.716L16.27 20.176C16.752 21.006 17.21 21.866 17.544 22.622C17.7093 23.002 17.8313 23.3247 17.91 23.59C17.951 23.724 17.9811 23.8611 18 24ZM24.66 11C24.9252 11.4594 24.9971 12.0053 24.8598 12.5176C24.7225 13.0299 24.3874 13.4668 23.928 13.732C23.797 13.7816 23.6635 13.8244 23.528 13.86C23.2587 13.924 22.9187 13.9793 22.508 14.026C21.684 14.116 20.712 14.148 19.75 14.146C19.57 14.146 19.3927 14.1447 19.218 14.142L19.48 13.678C19.96 12.846 20.474 12.018 20.964 11.352C21.1645 11.0715 21.383 10.8043 21.618 10.552C21.7113 10.4533 21.7873 10.38 21.846 10.332L21.928 10.268C22.3874 10.0028 22.9333 9.93093 23.4456 10.0682C23.9579 10.2055 24.3948 10.5407 24.66 11ZM21.928 21.732C21.8198 21.6435 21.7163 21.5494 21.618 21.45C21.383 21.1977 21.1645 20.9305 20.964 20.65C20.4284 19.9002 19.933 19.1224 19.48 18.32L19.22 17.856L19.75 17.852C20.71 17.85 21.684 17.882 22.508 17.972C22.9187 18.0187 23.2587 18.074 23.528 18.138C23.6587 18.17 23.7607 18.1993 23.834 18.226L23.93 18.266C24.1593 18.3964 24.3605 18.5708 24.5221 18.7793C24.6837 18.9877 24.8025 19.2261 24.8716 19.4806C24.9407 19.7352 24.9588 20.0009 24.9248 20.2624C24.8908 20.524 24.8054 20.7762 24.6735 21.0047C24.5416 21.2331 24.3659 21.4332 24.1564 21.5934C23.9468 21.7536 23.7077 21.8708 23.4527 21.9382C23.1977 22.0056 22.9319 22.0219 22.6706 21.9862C22.4092 21.9505 22.1575 21.8634 21.93 21.73L21.928 21.732ZM16 18C15.4696 18 14.9609 17.7893 14.5858 17.4142C14.2107 17.0391 14 16.5304 14 16C14 15.4696 14.2107 14.9609 14.5858 14.5858C14.9609 14.2107 15.4696 14 16 14C16.5304 14 17.0391 14.2107 17.4142 14.5858C17.7893 14.9609 18 15.4696 18 16C18 16.5304 17.7893 17.0391 17.4142 17.4142C17.0391 17.7893 16.5304 18 16 18Z" fill="black"/>
</svg>
