<svg width="16" height="16" viewBox="0 0 16 16" fill="none" xmlns="http://www.w3.org/2000/svg">
<g clip-path="url(#clip0_2_125)">
<path fill-rule="evenodd" clip-rule="evenodd" d="M6 12.5C6 12.6326 6.05268 12.7598 6.14645 12.8536C6.24021 12.9473 6.36739 13 6.5 13H14.5C14.6326 13 14.7598 12.9473 14.8536 12.8536C14.9473 12.7598 15 12.6326 15 12.5V3.5C15 3.36739 14.9473 3.24021 14.8536 3.14645C14.7598 3.05268 14.6326 3 14.5 3H6.5C6.36739 3 6.24021 3.05268 6.14645 3.14645C6.05268 3.24021 6 3.36739 6 3.5V5.5C6 5.63261 5.94732 5.75979 5.85355 5.85355C5.75979 5.94732 5.63261 6 5.5 6C5.36739 6 5.24021 5.94732 5.14645 5.85355C5.05268 5.75979 5 5.63261 5 5.5V3.5C5 3.10218 5.15804 2.72064 5.43934 2.43934C5.72064 2.15804 6.10218 2 6.5 2H14.5C14.8978 2 15.2794 2.15804 15.5607 2.43934C15.842 2.72064 16 3.10218 16 3.5V12.5C16 12.8978 15.842 13.2794 15.5607 13.5607C15.2794 13.842 14.8978 14 14.5 14H6.5C6.10218 14 5.72064 13.842 5.43934 13.5607C5.15804 13.2794 5 12.8978 5 12.5V10.5C5 10.3674 5.05268 10.2402 5.14645 10.1464C5.24021 10.0527 5.36739 10 5.5 10C5.63261 10 5.75979 10.0527 5.85355 10.1464C5.94732 10.2402 6 10.3674 6 10.5V12.5Z" fill="black"/>
<path fill-rule="evenodd" clip-rule="evenodd" d="M0.146009 8.35401C0.0994455 8.30756 0.0625027 8.25238 0.0372962 8.19164C0.0120898 8.13089 -0.00088501 8.06577 -0.00088501 8.00001C-0.00088501 7.93424 0.0120898 7.86912 0.0372962 7.80837C0.0625027 7.74763 0.0994455 7.69245 0.146009 7.64601L3.14601 4.64601C3.1925 4.59952 3.24769 4.56264 3.30843 4.53748C3.36916 4.51232 3.43426 4.49937 3.50001 4.49937C3.56575 4.49937 3.63085 4.51232 3.69159 4.53748C3.75233 4.56264 3.80752 4.59952 3.85401 4.64601C3.9005 4.69249 3.93737 4.74768 3.96253 4.80842C3.98769 4.86916 4.00064 4.93426 4.00064 5.00001C4.00064 5.06575 3.98769 5.13085 3.96253 5.19159C3.93737 5.25233 3.9005 5.30752 3.85401 5.35401L1.70701 7.50001H10.5C10.6326 7.50001 10.7598 7.55268 10.8536 7.64645C10.9473 7.74022 11 7.8674 11 8.00001C11 8.13261 10.9473 8.25979 10.8536 8.35356C10.7598 8.44733 10.6326 8.50001 10.5 8.50001H1.70701L3.85401 10.646C3.9005 10.6925 3.93737 10.7477 3.96253 10.8084C3.98769 10.8692 4.00064 10.9343 4.00064 11C4.00064 11.0658 3.98769 11.1309 3.96253 11.1916C3.93737 11.2523 3.9005 11.3075 3.85401 11.354C3.80752 11.4005 3.75233 11.4374 3.69159 11.4625C3.63085 11.4877 3.56575 11.5006 3.50001 11.5006C3.43426 11.5006 3.36916 11.4877 3.30843 11.4625C3.24769 11.4374 3.1925 11.4005 3.14601 11.354L0.146009 8.35401Z" fill="black"/>
</g>
<defs>
<clipPath id="clip0_2_125">
<rect width="16" height="16" fill="white"/>
</clipPath>
</defs>
</svg>
